<svg width="200" height="17" viewBox="0 0 200 17" fill="none" xmlns="http://www.w3.org/2000/svg">
<path fill-rule="evenodd" clip-rule="evenodd" d="M189 0H195C197.761 0 200 2.24937 200 5.02315V11.0509C200 13.8247 197.761 16.0741 195 16.0741H189C186.239 16.0741 184 13.8247 184 11.0509V5.02315C184 2.24937 186.239 0 189 0ZM195 14.5671C196.93 14.5671 198.5 12.9899 198.5 11.0509V5.02315C198.5 3.08421 196.93 1.50694 195 1.50694H189C187.07 1.50694 185.5 3.08421 185.5 5.02315V11.0509C185.5 12.9899 187.07 14.5671 189 14.5671H195ZM188 8.03704C188 5.81781 189.791 4.01852 192 4.01852C194.209 4.01852 196 5.81781 196 8.03704C196 10.2563 194.209 12.0556 192 12.0556C189.791 12.0556 188 10.2563 188 8.03704ZM189.5 8.03704C189.5 9.42142 190.622 10.5486 192 10.5486C193.378 10.5486 194.5 9.42142 194.5 8.03704C194.5 6.65165 193.378 5.52546 192 5.52546C190.622 5.52546 189.5 6.65165 189.5 8.03704ZM196.833 3.71713C196.833 4.01286 196.594 4.2526 196.3 4.2526C196.006 4.2526 195.767 4.01286 195.767 3.71713C195.767 3.4214 196.006 3.18167 196.3 3.18167C196.594 3.18167 196.833 3.4214 196.833 3.71713Z" fill="#B0B8BC"/>
<path fill-rule="evenodd" clip-rule="evenodd" d="M151.456 2.77138C152.415 2.82563 152.886 2.96829 153.32 3.74386C153.772 4.51843 154 5.85258 154 8.20241V8.20542V8.21045C154 10.5492 153.772 11.8934 153.321 12.66C152.887 13.4355 152.416 13.5762 151.457 13.6415C150.498 13.6967 148.089 13.7299 146.002 13.7299C143.911 13.7299 141.501 13.6967 140.543 13.6405C139.586 13.5752 139.115 13.4345 138.677 12.6589C138.23 11.8924 138 10.5482 138 8.20944V8.20743V8.20442V8.2014C138 5.85258 138.23 4.51843 138.677 3.74386C139.115 2.96728 139.587 2.82563 140.544 2.77038C141.501 2.70608 143.911 2.67896 146.002 2.67896C148.089 2.67896 150.498 2.70608 151.456 2.77138ZM149 8.20442L144 5.19053V11.2183L149 8.20442Z" fill="#B0B8BC"/>
<path d="M108 2.8856C107.405 3.14781 106.771 3.32161 106.11 3.406C106.79 2.99812 107.309 2.35717 107.553 1.58461C106.919 1.96436 106.219 2.23259 105.473 2.38228C104.871 1.73832 104.013 1.33948 103.077 1.33948C101.261 1.33948 99.799 2.8203 99.799 4.63567C99.799 4.89687 99.821 5.14803 99.875 5.38713C97.148 5.25351 94.735 3.94046 93.114 1.94025C92.831 2.43352 92.665 2.99812 92.665 3.60592C92.665 4.74718 93.25 5.75884 94.122 6.34454C93.595 6.3345 93.078 6.18079 92.64 5.93867C92.64 5.94872 92.64 5.96178 92.64 5.97484C92.64 7.57622 93.777 8.90635 95.268 9.21276C95.001 9.2861 94.71 9.32126 94.408 9.32126C94.198 9.32126 93.986 9.3092 93.787 9.265C94.212 10.57 95.418 11.5294 96.852 11.5606C95.736 12.4376 94.319 12.9661 92.785 12.9661C92.516 12.9661 92.258 12.954 92 12.9208C93.453 13.8622 95.175 14.3997 97.032 14.3997C103.068 14.3997 106.368 9.37651 106.368 5.02245C106.368 4.87678 106.363 4.73613 106.356 4.59649C107.007 4.13235 107.554 3.55268 108 2.8856Z" fill="#B0B8BC"/>
<path fill-rule="evenodd" clip-rule="evenodd" d="M49.5 1.7581C49.5 2.72907 48.7165 3.5162 47.75 3.5162C46.7835 3.5162 46 2.72907 46 1.7581C46 0.787129 46.7835 0 47.75 0C48.7165 0 49.5 0.787129 49.5 1.7581ZM46 5.02315H49.578V16.0741H46V5.02315ZM59.324 5.15275C59.3113 5.14873 59.2989 5.1446 59.2864 5.14047C59.2616 5.13221 59.2367 5.12395 59.21 5.11658C59.162 5.10553 59.114 5.09649 59.065 5.08845C58.875 5.05027 58.667 5.02315 58.423 5.02315C56.337 5.02315 55.014 6.54717 54.578 7.13588V5.02315H51V16.0741H54.578V10.0463C54.578 10.0463 57.282 6.26286 58.423 9.04167V16.0741H62V8.61671C62 6.94701 60.861 5.5556 59.324 5.15275Z" fill="#B0B8BC"/>
<path d="M9 5.52546V3.5162C9 2.96165 9.448 2.51157 10 2.51157H11V0H9C7.343 0 6 1.34922 6 3.01389V5.52546H4V8.03704H6V16.0741H9V8.03704H11L12 5.52546H9Z" fill="#B0B8BC"/>
</svg>
